<?xml version="1.0" standalone="no"?>
<!DOCTYPE svg PUBLIC "-//W3C//DTD SVG 20010904//EN"
 "http://www.w3.org/TR/2001/REC-SVG-20010904/DTD/svg10.dtd">
<svg version="1.0" xmlns="http://www.w3.org/2000/svg"
 width="512.000000pt" height="512.000000pt" viewBox="0 0 512.000000 512.000000"
 preserveAspectRatio="xMidYMid meet">
<metadata>
Created by potrace 1.14, written by Peter Selinger 2001-2017
</metadata>
<g transform="translate(0.000000,512.000000) scale(0.100000,-0.100000)"
fill="#000000" stroke="none">
<path d="M2427 5029 c-353 -93 -588 -337 -653 -679 -12 -64 -12 -278 -1 -297
3 -5 9 -25 12 -44 13 -77 73 -209 133 -294 54 -77 175 -187 252 -231 38 -21
68 -43 65 -49 -67 -158 -65 -150 -75 -380 -11 -256 -6 -242 -155 -491 l-107
-179 76 -72 c74 -70 168 -126 233 -139 31 -6 31 -6 35 -80 4 -78 18 -108 72
-148 24 -19 45 -21 176 -24 l149 -4 -10 -26 c-22 -57 -68 -90 -154 -111 -112
-27 -157 -84 -151 -194 9 -158 114 -300 264 -358 92 -36 270 -33 425 6 l27 7
0 -94 c0 -52 -6 -115 -14 -140 -28 -96 -40 -104 -405 -288 -189 -95 -355 -185
-379 -206 -53 -45 -113 -133 -136 -199 -10 -27 -20 -92 -23 -142 l-6 -93 1483
0 1483 0 -6 103 c-9 139 -34 216 -108 327 -67 100 -134 153 -319 253 -242 130
-286 157 -330 200 -46 45 -92 122 -107 177 -3 14 -8 115 -10 224 l-5 199 36
32 c19 17 52 47 73 66 21 19 90 82 153 139 141 129 152 140 228 228 206 240
334 532 381 872 9 63 7 365 -2 405 -3 11 -8 40 -12 65 -50 316 -228 650 -474
889 -68 67 -216 183 -281 220 -259 151 -487 222 -755 237 -55 3 -235 6 -400 7
l-300 2 -55 26 c-61 29 -130 91 -156 141 -10 18 -27 63 -38 99 l-21 66 -108
-28z m24 -211 c32 -62 144 -170 210 -202 107 -52 136 -55 493 -56 182 0 351
-3 376 -5 593 -55 1092 -450 1275 -1010 48 -145 66 -254 70 -420 11 -411 -138
-787 -422 -1072 -94 -93 -346 -324 -349 -320 -1 1 -38 74 -82 163 l-81 161 67
49 c168 122 240 255 228 420 -7 103 -41 196 -93 254 -61 68 -119 93 -213 93
-41 0 -83 -2 -94 -4 -16 -3 -22 9 -43 86 -93 348 -357 568 -732 609 -68 8 -74
12 -57 39 25 39 39 125 32 195 -17 182 -169 339 -347 358 l-49 5 0 -79 0 -79
54 -12 c64 -14 140 -75 164 -131 56 -135 -11 -279 -151 -326 -97 -32 -298 -2
-415 63 -149 83 -256 197 -316 340 -34 82 -47 141 -51 244 -5 117 16 214 73
329 72 149 205 270 361 331 64 25 68 24 92 -23z m523 -1403 c12 -3 35 -7 51
-9 213 -25 349 -87 468 -216 85 -91 129 -191 167 -380 17 -85 35 -177 41 -203
l11 -48 77 74 c79 78 114 94 171 82 98 -22 153 -217 93 -332 -33 -63 -48 -78
-178 -176 -66 -49 -124 -93 -128 -97 -4 -4 50 -124 121 -267 l130 -259 5 -230
c4 -217 6 -232 31 -298 14 -38 31 -75 37 -82 8 -9 -7 -23 -63 -55 -244 -143
-429 -200 -629 -195 -72 2 -92 6 -131 29 -43 25 -108 89 -108 105 0 5 9 26 19
48 32 66 39 107 40 245 1 73 3 135 5 136 2 2 59 19 127 39 68 19 125 36 127
38 2 2 -7 37 -18 78 l-22 74 -207 -59 c-424 -121 -543 -125 -649 -24 -41 39
-67 88 -76 142 l-7 41 74 22 c168 49 247 162 247 354 l0 88 -200 0 -200 0 0
120 0 120 -58 0 c-75 0 -148 22 -200 60 l-41 29 80 137 c103 175 130 255 135
394 11 280 12 296 32 348 11 29 28 64 36 77 14 22 18 23 53 12 21 -6 94 -11
163 -11 121 -1 127 0 190 31 65 32 107 36 184 18z m1253 -2619 c44 -30 142
-86 338 -191 94 -51 137 -79 155 -100 14 -17 14 -17 -18 -1 -79 41 -179 57
-332 52 -92 -3 -162 -10 -192 -19 -139 -46 -260 -130 -337 -234 l-46 -62 -772
0 -773 -1 10 25 c41 109 77 135 443 317 l314 157 49 -47 c106 -102 208 -138
369 -129 238 14 463 92 695 243 19 13 38 23 42 23 5 1 29 -14 55 -33z m323
-410 c80 -17 179 -68 224 -115 l30 -31 -402 0 c-221 0 -402 2 -402 5 0 12 58
57 116 90 33 19 87 41 120 48 82 20 228 21 314 3z"/>
<path d="M2553 2959 c-74 -23 -76 -31 -34 -105 91 -157 271 -241 442 -205 61
13 189 69 189 83 0 7 -57 127 -65 136 -2 2 -32 -12 -66 -30 -56 -29 -73 -33
-139 -32 -106 0 -186 48 -225 134 -10 22 -23 40 -29 39 -6 0 -39 -9 -73 -20z"/>
<path d="M540 3030 c-181 -33 -333 -153 -410 -324 -107 -234 -33 -513 177
-675 55 -42 156 -87 223 -100 34 -6 313 -10 722 -11 l668 0 0 80 0 80 -662 1
c-365 0 -676 3 -693 5 -16 2 -62 20 -102 39 -85 42 -142 101 -187 195 -27 58
-31 75 -31 160 0 86 3 101 31 160 46 95 101 153 191 197 69 34 84 38 157 38
91 0 135 -16 185 -67 49 -51 66 -95 66 -173 -1 -62 -5 -76 -34 -121 -49 -74
-106 -106 -203 -112 l-78 -5 0 -80 0 -80 91 5 c78 5 100 11 164 42 87 43 144
102 189 196 28 59 31 74 31 160 0 86 -3 101 -31 160 -45 94 -102 153 -189 196
-61 30 -85 37 -151 39 -44 2 -99 0 -124 -5z"/>
<path d="M827 1736 c-72 -27 -155 -90 -194 -148 -51 -74 -68 -133 -68 -233 0
-81 4 -97 34 -163 79 -168 283 -269 440 -217 87 29 161 131 161 222 0 66 -29
130 -79 175 -56 50 -104 68 -185 68 l-56 0 0 -80 0 -80 48 0 c59 0 93 -17 105
-53 14 -43 1 -75 -38 -94 -84 -40 -228 42 -260 150 -29 96 -14 164 52 237 73
81 63 80 635 80 l498 0 0 80 0 80 -517 -1 c-508 -1 -519 -1 -576 -23z"/>
</g>
</svg>
